<?xml version="1.0" encoding="UTF-8"?>
<svg id="Ebene_1" data-name="Ebene 1" xmlns="http://www.w3.org/2000/svg" viewBox="0 0 247.1 191.35">
  <defs>
    <style>
      .cls-1, .cls-2 {
        fill: #ffffff;
      }

      .cls-2 {
        stroke: #ffffff;
        stroke-linejoin: round;
        stroke-width: .75px;
      }

      .cls-3 {
        fill: #0c3a55;
      }

      .cls-4 {
        fill: #ffffff;
      }
    </style>
  </defs>
  <path class="cls-1" d="M246.03,119.55s-6.29-.72-8.89-.72c-3.77,0-5.71,1.35-5.71,4,0,2.88,1.62,3.55,6.88,4.99,6.47,1.8,8.8,3.5,8.8,8.76,0,6.74-4.22,9.66-10.28,9.66-4,0-10.06-1.22-10.06-1.22l.5-4s6.06.81,9.25.81c3.82,0,5.57-1.71,5.57-4.94,0-2.6-1.39-3.5-6.11-4.62-6.65-1.71-9.52-3.73-9.52-9.07,0-6.2,4.09-8.76,10.24-8.76,3.91,0,9.74,1.07,9.74,1.07l-.4,4.05ZM214.91,114.97h4.99v30.77h-4.99v-30.77ZM182.99,130.51c0-10.29,2.92-16.04,12.53-16.04s12.48,5.71,12.48,16.04-2.87,15.72-12.48,15.72-12.53-5.35-12.53-15.72M202.84,130.51c0-7.64-1.39-11.68-7.32-11.68s-7.37,4.04-7.37,11.68,1.39,11.36,7.37,11.36,7.32-3.54,7.32-11.36M145.05,114.97h8.67l6.88,24.03,6.87-24.03h8.71v30.77h-5.03v-25.25h-.67l-7.28,23.98h-5.21l-7.28-23.98h-.67v25.25h-4.99v-30.77ZM125.75,141.88c4.13,0,6.34-1.84,6.34-5.98v-20.93h5.03v20.84c0,7.42-4,10.42-11.36,10.42s-11.27-3.01-11.27-10.42v-20.84h5.03v20.93c0,4.18,2.15,5.98,6.24,5.98M82.83,130.51c0-10.29,2.92-16.04,12.53-16.04s12.49,5.71,12.49,16.04-2.87,15.72-12.49,15.72-12.53-5.35-12.53-15.72M102.68,130.51c0-7.64-1.4-11.68-7.33-11.68s-7.37,4.04-7.37,11.68,1.39,11.36,7.37,11.36,7.33-3.54,7.33-11.36M68.07,129.56h8.75v15.64c-.4.08-6.55,1.03-10.28,1.03-9.79,0-12.31-5.66-12.31-15.86,0-10.78,2.96-15.9,12.12-15.9,4.72,0,10.46,1.21,10.46,1.21l-.18,3.95s-5.43-.72-9.52-.72c-6.16,0-7.73,2.78-7.73,11.45s1.3,11.5,7.6,11.5c2.02,0,4.36-.27,4.9-.4v-7.5h-3.82v-4.4ZM29.9,114.97h19.4v4.36h-14.42v8.71h11.72v4.32h-11.72v8.98h14.42v4.4h-19.4v-30.77ZM0,145.74v-30.77h10.65c9.93,0,12.31,5.3,12.31,14.87s-2.16,15.9-12.31,15.9H0ZM10.65,119.33h-5.66v22.01h5.66c6.2,0,7.14-4.76,7.14-11.5s-.94-10.51-7.14-10.51"/>
  <path class="cls-4" d="M178.63,191.35v-28.32h3.15v25.49h12.44v2.82h-15.59ZM158.51,163.03h6.88l7.77,28.32h-3.11l-2.05-7.29h-12.11l-2.05,7.29h-3.11l7.77-28.32ZM156.58,181.24h10.72l-4.3-15.5h-2.13l-4.29,15.5ZM129.67,163.04h20.46v2.82h-8.63v25.49h-3.11v-25.49h-8.72v-2.82ZM103.94,163.04h5.89l10.85,25.53h.86v-25.53h3.11v28.31h-5.77l-11.01-25.53h-.77v25.53h-3.15v-28.31ZM80.3,163.04h17.22v2.78h-14.07v9.78h11.62v2.74h-11.62v10.23h14.07v2.79h-17.22v-28.31ZM52.89,191.35v-28.31h10.11c8.23,0,10.48,5.72,10.48,13.75s-2.13,14.56-10.48,14.56h-10.11ZM63,165.82h-6.95v22.74h6.95c5.89,0,7.24-5.64,7.24-11.78s-1.35-10.96-7.24-10.96"/>
  <g>
    <path class="cls-2" d="M137.13,11.15s-6.78-3.92-12.18-6.65c-11.36-5.75-15.06-4.12-17.66-3.12-5.67,2.33-29.22,15.99-29.22,15.99l-.05,32.93-.13,25.6,15.15,8.48,2.68-1.46"/>
    <g>
      <path class="cls-3" d="M94.2,26.82c9.33-5.52,27.19-15.68,31.18-16.5.54-.11,1.67-.24,3.07-.24,3.31,0,9.48.73,13.57,5.6,3.99,4.76,5.1,12.36,3.29,22.56-.03.24-1.6,15.65-17.14,25.86-11.75,7.73-29,16.47-34.06,18.99l.09-56.27Z"/>
      <path class="cls-1" d="M128.45,11.08h0c3.14,0,8.98.68,12.8,5.24,3.8,4.53,4.83,11.84,3.08,21.75,0,.05-.02.11-.02.17-.01.15-1.58,15.1-16.68,25.03-10.76,7.08-26.17,15.02-32.5,18.21l.08-54.08c10.65-6.29,26.84-15.37,30.38-16.09.4-.08,1.45-.22,2.87-.22M128.45,9.08c-1.55,0-2.73.15-3.27.26-5.3,1.08-31.98,16.91-31.98,16.91l-.09,58.45s21.56-10.52,35.61-19.77c16.17-10.62,17.58-26.52,17.58-26.52,4.61-26.05-10.62-29.33-17.85-29.33h0Z"/>
    </g>
    <path class="cls-2" d="M163.42,26.03s-6.78-3.92-12.18-6.65c-11.36-5.75-15.06-4.12-17.66-3.12-5.67,2.33-29.22,15.99-29.22,15.99l-.05,32.93-.13,25.6,15.15,8.48,2.68-1.46"/>
    <g>
      <path class="cls-3" d="M120.49,41.71c9.33-5.52,27.19-15.68,31.18-16.5.54-.11,1.67-.24,3.07-.24,3.31,0,9.49.73,13.57,5.6,3.99,4.76,5.1,12.36,3.29,22.56-.03.24-1.6,15.65-17.14,25.86-11.75,7.73-29,16.47-34.06,18.99l.09-56.27Z"/>
      <path class="cls-1" d="M154.74,25.97h0c3.14,0,8.98.68,12.8,5.24,3.8,4.53,4.83,11.84,3.08,21.75-.01.06-.02.11-.02.17-.01.15-1.5,15.05-16.68,25.02-10.76,7.08-26.17,15.02-32.5,18.21l.08-54.08c10.65-6.29,26.84-15.37,30.38-16.09.4-.08,1.45-.22,2.87-.22M154.74,23.97c-1.55,0-2.73.15-3.27.26-5.3,1.08-31.98,16.91-31.98,16.91l-.09,58.45s21.56-10.52,35.61-19.77c16.17-10.62,17.58-26.52,17.58-26.52,4.61-26.05-10.62-29.33-17.85-29.33h0Z"/>
    </g>
  </g>
</svg>